<?xml version="1.0" encoding="UTF-8"?>
<svg version="1.1" xmlns="http://www.w3.org/2000/svg" width="177" height="128">
<path d="M0 0 C58.41 0 116.82 0 177 0 C177 42.24 177 84.48 177 128 C118.59 128 60.18 128 0 128 C0 85.76 0 43.52 0 0 Z " fill="#016BB6" transform="translate(0,0)"/>
<path d="M0 0 C2.31 0.33 4.62 0.66 7 1 C7.33 2.98 7.66 4.96 8 7 C7.01 7.33 6.02 7.66 5 8 C5 8.99 5 9.98 5 11 C9.29 11 13.58 11 18 11 C18 13.97 18 16.94 18 20 C16.88625 20.12375 15.7725 20.2475 14.625 20.375 C10.96896323 20.6465813 10.96896323 20.6465813 9 23 C8.78323592 26.39597063 8.91926148 28.75778445 10 32 C12.64 32.33 15.28 32.66 18 33 C18 35.97 18 38.94 18 42 C15.03 42 12.06 42 9 42 C9 39.36 9 36.72 9 34 C5.47940432 32.82646811 2.693507 32.79853598 -1 33 C-3.41121859 34.95633975 -3.41121859 34.95633975 -3.125 38.625 C-3.08375 39.73875 -3.0425 40.8525 -3 42 C-6.3 42 -9.6 42 -13 42 C-13 37.38 -13 32.76 -13 28 C-13.66 28 -14.32 28 -15 28 C-15 28.66 -15 29.32 -15 30 C-17.3125 30.6875 -17.3125 30.6875 -20 31 C-21.875 29.875 -21.875 29.875 -23 28 C-22.57894737 23.57894737 -22.57894737 23.57894737 -21 22 C-17.27775401 21.70613847 -16.22213757 21.85190829 -13 24 C-13 19.38 -13 14.76 -13 10 C-7.555 9.505 -7.555 9.505 -2 9 C-2.04125 8.071875 -2.0825 7.14375 -2.125 6.1875 C-2 3 -2 3 0 0 Z " fill="#F0F6FA" transform="translate(103,80)"/>
<path d="M0 0 C3.125 0.375 3.125 0.375 6 1 C6.33 3.31 6.66 5.62 7 8 C7.60328125 7.62746094 8.2065625 7.25492188 8.828125 6.87109375 C9.62734375 6.39800781 10.4265625 5.92492188 11.25 5.4375 C12.03890625 4.96183594 12.8278125 4.48617187 13.640625 3.99609375 C16 3 16 3 18.1875 3.1953125 C20.93846769 4.41664729 21.71363826 6.36295844 23 9 C23 9.66 23 10.32 23 11 C21.36368108 12.04892238 19.69514137 13.04906703 18 14 C17.67 14.33 17.34 14.66 17 15 C17.28469203 20.02499694 17.28469203 20.02499694 20 24 C22.5 24.33333333 22.5 24.33333333 25 24 C25.66 23.34 26.32 22.68 27 22 C27.99 22 28.98 22 30 22 C31.85518115 24.38523291 32.94570466 26.07697918 33.125 29.125 C31.2706799 32.21553349 28.27012793 32.81086257 25 34 C24.731875 33.38125 24.46375 32.7625 24.1875 32.125 C23.04443152 29.7004767 23.04443152 29.7004767 20 28 C17.5 27.5 17.5 27.5 15 28 C12.97103788 29.53813421 12.97103788 29.53813421 12 32 C12.25335353 35.02019764 12.25335353 35.02019764 13 38 C13 39.32 13 40.64 13 42 C10.09399739 43.25664978 8.20395416 44 5 44 C4.32845067 42.71086513 3.66291141 41.41859796 3 40.125 C2.62875 39.40570313 2.2575 38.68640625 1.875 37.9453125 C1 36 1 36 1 34 C0.01 34 -0.98 34 -2 34 C-2.66 35.32 -3.32 36.64 -4 38 C-6.375 38.125 -6.375 38.125 -9 38 C-11 36 -11 36 -11.25 33.5 C-11 31 -11 31 -9 29 C-5.875 28.875 -5.875 28.875 -3 29 C-3.3609375 28.39671875 -3.721875 27.7934375 -4.09375 27.171875 C-4.5578125 26.37265625 -5.021875 25.5734375 -5.5 24.75 C-5.9640625 23.96109375 -6.428125 23.1721875 -6.90625 22.359375 C-8 20 -8 20 -8 16 C-4.7 14.35 -1.4 12.7 2 11 C0.68 10.01 -0.64 9.02 -2 8 C-2.375 4.9375 -2.375 4.9375 -2 2 C-1.34 1.34 -0.68 0.68 0 0 Z " fill="#F4F9FC" transform="translate(83,31)"/>
<path d="M0 0 C1.16552619 4.19589427 1.08954032 4.82091936 -1 9 C3.29 9 7.58 9 12 9 C12 11.97 12 14.94 12 18 C10.6078125 17.9071875 10.6078125 17.9071875 9.1875 17.8125 C6.09252496 17.74760199 6.09252496 17.74760199 4.125 19.125 C2.47145469 21.88090884 2.60634432 23.85075452 3 27 C4 29 4 29 6 30 C9.12549017 30.25048636 9.12549017 30.25048636 12 30 C12 33.3 12 36.6 12 40 C8.7 40 5.4 40 2 40 C2.04125 38.88625 2.0825 37.7725 2.125 36.625 C2.41121859 32.95633975 2.41121859 32.95633975 0 31 C-3.5 30.66666667 -3.5 30.66666667 -7 31 C-9.76223278 33.76223278 -9.57856291 36.20706617 -10 40 C-12.97 40 -15.94 40 -19 40 C-19 35.71 -19 31.42 -19 27 C-20.464375 27.185625 -21.92875 27.37125 -23.4375 27.5625 C-24.95318071 27.75462854 -26.47480724 27.91062197 -28 28 C-29 27 -29 27 -29.125 24 C-29 21 -29 21 -28 20 C-23.96839809 19.73706944 -22.44107266 19.70595156 -19 22 C-19 17.71 -19 13.42 -19 9 C-14.71 9 -10.42 9 -6 9 C-6 8.34 -6 7.68 -6 7 C-6.66 7 -7.32 7 -8 7 C-8 4.69 -8 2.38 -8 0 C-4.71023192 -1.09658936 -3.28696233 -0.79953138 0 0 Z " fill="#F5F9FC" transform="translate(76,82)"/>
<path d="M0 0 C0.33 0.66 0.66 1.32 1 2 C3.78466652 2.39259593 3.78466652 2.39259593 7 2.5 C10.3125 2.65625 10.3125 2.65625 13 3 C14.38226016 5.76452033 14.09525387 8.0461363 14.0625 11.125 C14.05347656 12.22070312 14.04445313 13.31640625 14.03515625 14.4453125 C14.02355469 15.28835937 14.01195313 16.13140625 14 17 C11.36 16.67 8.72 16.34 6 16 C5.25042843 19.47147842 5.25042843 19.47147842 5 23 C7.31 23 9.62 23 12 23 C12 22.34 12 21.68 12 21 C12.66 21 13.32 21 14 21 C13.67 25.62 13.34 30.24 13 35 C12.67 35 12.34 35 12 35 C11.67 32.03 11.34 29.06 11 26 C9.88625 25.896875 8.7725 25.79375 7.625 25.6875 C5.830625 25.3471875 5.830625 25.3471875 4 25 C1.67250655 21.50875983 1.49700684 20.10777749 2 16 C3.6875 13.625 3.6875 13.625 6 12 C8.75 11.75 8.75 11.75 11 12 C11.33 9.36 11.66 6.72 12 4 C7.71 4 3.42 4 -1 4 C-0.67 2.68 -0.34 1.36 0 0 Z " fill="#3C8EC7" transform="translate(76,87)"/>
<path d="M0 0 C0.99 0 1.98 0 3 0 C4.85518115 2.38523291 5.94570466 4.07697918 6.125 7.125 C4.2706799 10.21553349 1.27012793 10.81086257 -2 12 C-2.185625 11.401875 -2.37125 10.80375 -2.5625 10.1875 C-4.72273753 6.90018201 -7.35107655 6.35145313 -11 5 C-7.77247208 3.26210035 -4.47122306 2.15707435 -1 1 C-0.67 0.67 -0.34 0.34 0 0 Z " fill="#E8F1F8" transform="translate(110,53)"/>
<path d="M0 0 C0.66 0 1.32 0 2 0 C2 2.64 2 5.28 2 8 C4.31 8 6.62 8 9 8 C9 7.34 9 6.68 9 6 C9.66 6 10.32 6 11 6 C10.67 10.62 10.34 15.24 10 20 C9.67 20 9.34 20 9 20 C8.67 17.03 8.34 14.06 8 11 C6.88625 10.896875 5.7725 10.79375 4.625 10.6875 C2.830625 10.3471875 2.830625 10.3471875 1 10 C-1.29404844 6.55892734 -1.26293056 5.03160191 -1 1 C-0.67 0.67 -0.34 0.34 0 0 Z " fill="#227FBF" transform="translate(79,102)"/>
</svg>
